<svg width="42" height="42" viewBox="0 0 42 42" fill="none" xmlns="http://www.w3.org/2000/svg">
<path d="M18.8698 15.4738H7.14068L10.1984 11.5425H21.1627L21.6744 10.6655C21.6767 10.6613 21.6792 10.6572 21.6817 10.6532L21.6798 10.6561L21.1627 11.5425L21.4177 11.5425L19.1243 15.4738L18.8698 15.4738ZM11.9457 6.30078H21.5558C22.5209 6.30078 23.303 7.08315 23.303 8.04802V9.79527H10.1986V8.04802C10.1986 7.08315 10.9808 6.30078 11.9457 6.30078ZM18.4979 17.221V35.567H8.88787C7.92299 35.567 7.14062 34.7847 7.14062 33.8198V17.2209L18.4979 17.221ZM20.2452 17.0204L23.1838 11.9825L23.4443 11.5487L26.2413 16.3439C26.3195 16.4776 26.3605 16.6295 26.3605 16.7842V25.822C23.8559 26.7971 21.9922 28.641 21.9922 30.7623C21.9922 32.8824 23.8535 34.7253 26.3556 35.7008L20.2452 35.5673L20.2452 17.0204ZM30.2918 34.6934C26.9274 34.6934 23.7396 32.7192 23.7396 30.7621C23.7396 28.8049 26.9275 26.8308 30.2918 26.8308C33.2808 26.8308 35.0968 28.463 35.0968 30.7621C35.0968 33.0611 33.2808 34.6934 30.2918 34.6934Z" fill="#282B30"/>
</svg>
