<?xml version="1.0" encoding="UTF-8"?>
<svg width="42" height="42" version="1.1" viewBox="0 0 700 700" xmlns="http://www.w3.org/2000/svg" xmlns:xlink="http://www.w3.org/1999/xlink">
 <defs>
  <symbol id="u" overflow="visible">
   <path d="m11.609-0.6875c-0.59375 0.30469-1.2188 0.53125-1.875 0.6875-0.64844 0.16406-1.3242 0.25-2.0312 0.25-2.1055 0-3.7734-0.58594-5-1.7656-1.2305-1.1758-1.8438-2.7695-1.8438-4.7812 0-2.0195 0.61328-3.6172 1.8438-4.7969 1.2266-1.1758 2.8945-1.7656 5-1.7656 0.70703 0 1.3828 0.078125 2.0312 0.23438 0.65625 0.15625 1.2812 0.39062 1.875 0.70312v2.6094c-0.60547-0.40625-1.2031-0.70312-1.7969-0.89062-0.58594-0.19531-1.1992-0.29688-1.8438-0.29688-1.1562 0-2.0703 0.375-2.7344 1.125-0.66797 0.74219-1 1.7656-1 3.0781 0 1.3047 0.33203 2.3281 1 3.0781 0.66406 0.74219 1.5781 1.1094 2.7344 1.1094 0.64453 0 1.2578-0.09375 1.8438-0.28125 0.59375-0.19531 1.1914-0.50391 1.7969-0.92188z"/>
  </symbol>
  <symbol id="e" overflow="visible">
   <path d="m8.5-6.8906c-0.27344-0.125-0.53906-0.21875-0.79688-0.28125-0.26172-0.0625-0.52734-0.09375-0.79688-0.09375-0.77344 0-1.3711 0.25-1.7969 0.75-0.41797 0.5-0.625 1.2188-0.625 2.1562v4.3594h-3.0312v-9.4688h3.0312v1.5469c0.38281-0.61328 0.82812-1.0625 1.3281-1.3438 0.50781-0.28906 1.1172-0.4375 1.8281-0.4375 0.10156 0 0.21094 0.007813 0.32812 0.015625 0.11328 0.011719 0.28516 0.027344 0.51562 0.046875z"/>
  </symbol>
  <symbol id="b" overflow="visible">
   <path d="m10.922-4.7656v0.85938h-7.0938c0.070313 0.71875 0.32812 1.2578 0.76562 1.6094 0.44531 0.35547 1.0664 0.53125 1.8594 0.53125 0.63281 0 1.2852-0.09375 1.9531-0.28125 0.66406-0.1875 1.3516-0.47266 2.0625-0.85938v2.3281c-0.71875 0.27344-1.4375 0.47656-2.1562 0.60938-0.71094 0.14453-1.4219 0.21875-2.1406 0.21875-1.7188 0-3.0547-0.4375-4-1.3125-0.94922-0.875-1.4219-2.0977-1.4219-3.6719 0-1.5391 0.46094-2.7539 1.3906-3.6406 0.9375-0.88281 2.2227-1.3281 3.8594-1.3281 1.4883 0 2.6797 0.44922 3.5781 1.3438 0.89453 0.89844 1.3438 2.0938 1.3438 3.5938zm-3.125-1c0-0.58203-0.16797-1.0469-0.5-1.3906-0.33594-0.35156-0.77344-0.53125-1.3125-0.53125-0.58594 0-1.0625 0.16797-1.4375 0.5-0.36719 0.32422-0.59375 0.79688-0.6875 1.4219z"/>
  </symbol>
  <symbol id="d" overflow="visible">
   <path d="m5.7031-4.2656c-0.63672 0-1.1172 0.10938-1.4375 0.32812-0.3125 0.21094-0.46875 0.52344-0.46875 0.9375 0 0.38672 0.125 0.6875 0.375 0.90625 0.25781 0.21875 0.61719 0.32812 1.0781 0.32812 0.57031 0 1.0508-0.20312 1.4375-0.60938 0.39453-0.41406 0.59375-0.92969 0.59375-1.5469v-0.34375zm4.625-1.1406v5.4062h-3.0469v-1.4062c-0.40625 0.57422-0.86719 0.99609-1.375 1.2656-0.51172 0.25781-1.1328 0.39062-1.8594 0.39062-0.98047 0-1.7773-0.28516-2.3906-0.85938-0.60547-0.57031-0.90625-1.3164-0.90625-2.2344 0-1.1133 0.37891-1.9258 1.1406-2.4375 0.75781-0.51953 1.957-0.78125 3.5938-0.78125h1.7969v-0.23438c0-0.47656-0.19531-0.82812-0.57812-1.0469-0.375-0.22656-0.96484-0.34375-1.7656-0.34375-0.64844 0-1.25 0.070312-1.8125 0.20312-0.55469 0.125-1.0703 0.32031-1.5469 0.57812v-2.3125c0.64453-0.15625 1.2969-0.27344 1.9531-0.35938 0.65625-0.082031 1.3047-0.125 1.9531-0.125 1.7188 0 2.9531 0.33984 3.7031 1.0156 0.75781 0.66797 1.1406 1.7617 1.1406 3.2812z"/>
  </symbol>
  <symbol id="c" overflow="visible">
   <path d="m4.7656-12.172v2.7031h3.125v2.1562h-3.125v4.0156c0 0.44922 0.082031 0.75 0.25 0.90625 0.17578 0.14844 0.52344 0.21875 1.0469 0.21875h1.5625v2.1719h-2.5938c-1.1992 0-2.0469-0.25-2.5469-0.75s-0.75-1.3477-0.75-2.5469v-4.0156h-1.5v-2.1562h1.5v-2.7031z"/>
  </symbol>
  <symbol id="k" overflow="visible">
   <path d="m7.9062-8.0938v-5.0781h3.0469v13.172h-3.0469v-1.375c-0.41797 0.5625-0.88281 0.97656-1.3906 1.2344-0.5 0.25781-1.0781 0.39062-1.7344 0.39062-1.168 0-2.125-0.46094-2.875-1.3906-0.75-0.92578-1.125-2.125-1.125-3.5938 0-1.457 0.375-2.6484 1.125-3.5781 0.75-0.92578 1.707-1.3906 2.875-1.3906 0.65625 0 1.2344 0.13281 1.7344 0.39062 0.50781 0.26172 0.97266 0.66797 1.3906 1.2188zm-2 6.1406c0.64453 0 1.1406-0.23438 1.4844-0.70312 0.34375-0.47656 0.51562-1.1719 0.51562-2.0781 0-0.89453-0.17188-1.5781-0.51562-2.0469-0.34375-0.47656-0.83984-0.71875-1.4844-0.71875-0.64844 0-1.1406 0.24219-1.4844 0.71875-0.33594 0.46875-0.5 1.1523-0.5 2.0469 0 0.90625 0.16406 1.6016 0.5 2.0781 0.34375 0.46875 0.83594 0.70312 1.4844 0.70312z"/>
  </symbol>
  <symbol id="j" overflow="visible">
   <path d="m6.5-1.9531c0.64453 0 1.1406-0.23438 1.4844-0.70312 0.34375-0.47656 0.51562-1.1719 0.51562-2.0781 0-0.89453-0.17188-1.5781-0.51562-2.0469-0.34375-0.47656-0.83984-0.71875-1.4844-0.71875-0.64844 0-1.1484 0.24219-1.5 0.71875-0.34375 0.46875-0.51562 1.1523-0.51562 2.0469 0 0.89844 0.17188 1.5859 0.51562 2.0625 0.35156 0.48047 0.85156 0.71875 1.5 0.71875zm-2.0156-6.1406c0.41406-0.55078 0.87891-0.95703 1.3906-1.2188 0.50781-0.25781 1.0938-0.39062 1.75-0.39062 1.1641 0 2.125 0.46484 2.875 1.3906 0.75 0.92969 1.125 2.1211 1.125 3.5781 0 1.4688-0.375 2.668-1.125 3.5938-0.75 0.92969-1.7109 1.3906-2.875 1.3906-0.65625 0-1.2422-0.13281-1.75-0.39062-0.51172-0.26953-0.97656-0.67969-1.3906-1.2344v1.375h-3.0312v-13.172h3.0312z"/>
  </symbol>
  <symbol id="g" overflow="visible">
   <path d="m0.21875-9.4688h3.0156l2.5469 6.4219 2.1719-6.4219h3.0312l-3.9844 10.359c-0.40625 1.0625-0.875 1.8008-1.4062 2.2188-0.53125 0.41406-1.2344 0.625-2.1094 0.625h-1.75v-1.9844h0.95312c0.50781 0 0.87891-0.085938 1.1094-0.25 0.23828-0.15625 0.42188-0.44922 0.54688-0.875l0.09375-0.26562z"/>
  </symbol>
  <symbol id="i" overflow="visible">
   <path d="m12.953-0.9375c-0.8125 0.39844-1.6562 0.69531-2.5312 0.89062s-1.7812 0.29688-2.7188 0.29688c-2.1055 0-3.7734-0.58594-5-1.7656-1.2305-1.1758-1.8438-2.7695-1.8438-4.7812 0-2.0391 0.625-3.6445 1.875-4.8125 1.2578-1.1641 2.9766-1.75 5.1562-1.75 0.83203 0 1.6328 0.078125 2.4062 0.23438 0.76953 0.15625 1.5 0.39062 2.1875 0.70312v2.6094c-0.71094-0.39453-1.4141-0.69141-2.1094-0.89062-0.69922-0.19531-1.3984-0.29688-2.0938-0.29688-1.293 0-2.293 0.36719-3 1.0938-0.69922 0.71875-1.0469 1.7578-1.0469 3.1094 0 1.3359 0.33594 2.3672 1.0156 3.0938 0.67578 0.73047 1.6328 1.0938 2.875 1.0938 0.34375 0 0.66016-0.019531 0.95312-0.0625 0.28906-0.039063 0.55078-0.10938 0.78125-0.20312v-2.4531h-1.9844v-2.1875h5.0781z"/>
  </symbol>
  <symbol id="f" overflow="visible">
   <path d="m10.984-5.7656v5.7656h-3.0469v-4.4219c0-0.8125-0.023438-1.375-0.0625-1.6875-0.03125-0.3125-0.09375-0.53906-0.1875-0.6875-0.11719-0.19531-0.27734-0.34766-0.48438-0.45312-0.19922-0.11328-0.42969-0.17188-0.6875-0.17188-0.63672 0-1.1367 0.24609-1.5 0.73438-0.35547 0.49219-0.53125 1.168-0.53125 2.0312v4.6562h-3.0312v-9.4688h3.0312v1.375c0.45703-0.55078 0.94141-0.95703 1.4531-1.2188 0.50781-0.25781 1.0781-0.39062 1.7031-0.39062 1.0938 0 1.9219 0.33984 2.4844 1.0156 0.57031 0.66797 0.85938 1.6406 0.85938 2.9219z"/>
  </symbol>
  <symbol id="t" overflow="visible">
   <path d="m1.5938-12.625h3.25v4.6094l4.7031-4.6094h3.7812l-6.0781 5.9688 6.7031 6.6562h-4.0781l-5.0312-4.9688v4.9688h-3.25z"/>
  </symbol>
  <symbol id="h" overflow="visible">
   <path d="m10.984-5.7656v5.7656h-3.0469v-4.4062c0-0.82031-0.023438-1.3906-0.0625-1.7031-0.03125-0.3125-0.09375-0.53906-0.1875-0.6875-0.11719-0.19531-0.27734-0.34766-0.48438-0.45312-0.19922-0.11328-0.42969-0.17188-0.6875-0.17188-0.63672 0-1.1367 0.24609-1.5 0.73438-0.35547 0.49219-0.53125 1.168-0.53125 2.0312v4.6562h-3.0312v-13.172h3.0312v5.0781c0.45703-0.55078 0.94141-0.95703 1.4531-1.2188 0.50781-0.25781 1.0781-0.39062 1.7031-0.39062 1.0938 0 1.9219 0.33984 2.4844 1.0156 0.57031 0.66797 0.85938 1.6406 0.85938 2.9219z"/>
  </symbol>
  <symbol id="a" overflow="visible">
   <path d="m5.9688-7.5312c-0.67969 0-1.1953 0.24219-1.5469 0.71875-0.34375 0.48047-0.51562 1.1719-0.51562 2.0781s0.17188 1.6055 0.51562 2.0938c0.35156 0.48047 0.86719 0.71875 1.5469 0.71875 0.65625 0 1.1562-0.23828 1.5-0.71875 0.35156-0.48828 0.53125-1.1875 0.53125-2.0938s-0.17969-1.5977-0.53125-2.0781c-0.34375-0.47656-0.84375-0.71875-1.5-0.71875zm0-2.1719c1.625 0 2.8945 0.44531 3.8125 1.3281 0.91406 0.875 1.375 2.0898 1.375 3.6406 0 1.5625-0.46094 2.7891-1.375 3.6719-0.91797 0.875-2.1875 1.3125-3.8125 1.3125-1.6367 0-2.918-0.4375-3.8438-1.3125-0.91797-0.88281-1.375-2.1094-1.375-3.6719 0-1.5508 0.45703-2.7656 1.375-3.6406 0.92578-0.88281 2.207-1.3281 3.8438-1.3281z"/>
  </symbol>
  <symbol id="s" overflow="visible">
   <path d="m1.5938-12.625h3.25v10.156h5.7188v2.4688h-8.9688z"/>
  </symbol>
  <symbol id="r" overflow="visible">
   <path d="m7.6875-13.172v2h-1.6719c-0.42969 0-0.73047 0.078125-0.90625 0.23438-0.16797 0.14844-0.25 0.41406-0.25 0.79688v0.67188h2.5938v2.1562h-2.5938v7.3125h-3.0156v-7.3125h-1.5156v-2.1562h1.5156v-0.67188c0-1.0312 0.28516-1.7891 0.85938-2.2812 0.57031-0.5 1.4609-0.75 2.6719-0.75z"/>
  </symbol>
  <symbol id="q" overflow="visible">
   <path d="m10.234-7.9062c0.38281-0.58203 0.83594-1.0234 1.3594-1.3281 0.53125-0.3125 1.1133-0.46875 1.75-0.46875 1.082 0 1.9102 0.33984 2.4844 1.0156 0.57031 0.66797 0.85938 1.6406 0.85938 2.9219v5.7656h-3.0469v-4.9375-0.21875c0.007813-0.082031 0.015625-0.20312 0.015625-0.35938 0-0.66406-0.10156-1.1484-0.29688-1.4531-0.19922-0.30078-0.51562-0.45312-0.95312-0.45312-0.57422 0-1.0156 0.24219-1.3281 0.71875-0.3125 0.46875-0.48047 1.1523-0.5 2.0469v4.6562h-3.0469v-4.9375c0-1.0508-0.089844-1.7266-0.26562-2.0312-0.17969-0.30078-0.5-0.45312-0.96875-0.45312-0.57422 0-1.0234 0.24219-1.3438 0.71875-0.3125 0.48047-0.46875 1.1641-0.46875 2.0469v4.6562h-3.0469v-9.4688h3.0469v1.375c0.375-0.53125 0.80078-0.92969 1.2812-1.2031 0.47656-0.26953 1.0078-0.40625 1.5938-0.40625 0.65625 0 1.2344 0.16406 1.7344 0.48438 0.5 0.3125 0.87891 0.75 1.1406 1.3125z"/>
  </symbol>
  <symbol id="p" overflow="visible">
   <path d="m1.5938-12.625h3.6406l4.5938 8.6562v-8.6562h3.0781v12.625h-3.6406l-4.5938-8.6719v8.6719h-3.0781z"/>
  </symbol>
  <symbol id="o" overflow="visible">
   <path d="m1.3594-3.6875v-5.7812h3.0469v0.9375c0 0.51172-0.007812 1.1562-0.015625 1.9375-0.011719 0.77344-0.015625 1.2891-0.015625 1.5469 0 0.76172 0.019531 1.3125 0.0625 1.6562 0.039062 0.33594 0.10938 0.57422 0.20312 0.71875 0.125 0.19922 0.28516 0.35547 0.48438 0.46875 0.20703 0.10547 0.44141 0.15625 0.70312 0.15625 0.625 0 1.1172-0.23828 1.4844-0.71875 0.36328-0.48828 0.54688-1.1641 0.54688-2.0312v-4.6719h3.0156v9.4688h-3.0156v-1.375c-0.46094 0.55469-0.94531 0.96484-1.4531 1.2344-0.51172 0.25781-1.0742 0.39062-1.6875 0.39062-1.0938 0-1.9297-0.33203-2.5-1-0.57422-0.67578-0.85938-1.6562-0.85938-2.9375z"/>
  </symbol>
  <symbol id="n" overflow="visible">
   <path d="m1.5938-12.625h5.4062c1.6016 0 2.832 0.35938 3.6875 1.0781 0.86328 0.71094 1.2969 1.7188 1.2969 3.0312 0 1.3359-0.43359 2.3594-1.2969 3.0781-0.85547 0.71094-2.0859 1.0625-3.6875 1.0625h-2.1562v4.375h-3.25zm3.25 2.3594v3.5156h1.8125c0.625 0 1.1094-0.14844 1.4531-0.45312 0.34375-0.3125 0.51562-0.75 0.51562-1.3125s-0.17188-0.99219-0.51562-1.2969c-0.34375-0.30078-0.82812-0.45312-1.4531-0.45312z"/>
  </symbol>
  <symbol id="m" overflow="visible">
   <path d="m1.4531-9.4688h3.0312v9.2969c0 1.2695-0.30859 2.2383-0.92188 2.9062-0.60547 0.66406-1.4844 1-2.6406 1h-1.5v-1.9844h0.53125c0.57031 0 0.96094-0.13281 1.1719-0.39062 0.21875-0.26172 0.32812-0.77344 0.32812-1.5312zm0-3.7031h3.0312v2.4844h-3.0312z"/>
  </symbol>
  <symbol id="l" overflow="visible">
   <path d="m9.1094-9.1875v2.4844c-0.40625-0.28125-0.82031-0.48828-1.2344-0.625-0.41797-0.13281-0.85156-0.20312-1.2969-0.20312-0.84375 0-1.5 0.24609-1.9688 0.73438-0.46875 0.49219-0.70312 1.1797-0.70312 2.0625 0 0.88672 0.23438 1.5781 0.70312 2.0781 0.46875 0.49219 1.125 0.73438 1.9688 0.73438 0.47656 0 0.92969-0.066406 1.3594-0.20312 0.42578-0.14453 0.81641-0.35938 1.1719-0.64062v2.4844c-0.46875 0.17969-0.94922 0.30469-1.4375 0.39062-0.49219 0.09375-0.98047 0.14062-1.4688 0.14062-1.7109 0-3.0469-0.4375-4.0156-1.3125-0.96094-0.88281-1.4375-2.1094-1.4375-3.6719s0.47656-2.7812 1.4375-3.6562c0.96875-0.875 2.3047-1.3125 4.0156-1.3125 0.5 0 0.98828 0.046875 1.4688 0.14062 0.47656 0.085938 0.95703 0.21094 1.4375 0.375z"/>
  </symbol>
 </defs>
 <g>
  <path d="m134.2 415.55c5.168 2.3789 10.164 4.9844 15.711 9.2109 6.2461 4.7539 11.438 11.207 15.734 18.578-5.7969-5.1914-11.918-10.281-18.359-14.816-4.6445-3.2422-9.4336-6.2305-14.945-8.7773-5.543-2.4609-11.828-4.8594-20.789-4.9688-3.8555-0.007813-8.2773 0.55469-12.824 2.1992-4.5039 1.5898-9 4.332-12.582 7.7695-0.011719 0.007812-0.015626 0.011718-0.023438 0.015624-0.023438 0.023438-0.050781 0.042969-0.078125 0.066407-0.14844 0.14062-0.27344 0.29688-0.41406 0.44141-5.3555 5.293-8.3906 11.531-10 17.012-1.6719 5.7383-2.1289 11-2.1523 16.258 0.054687 10.344 1.8828 21.035 5.1914 34.242 3.3359 13.164 8.2891 28.676 15.191 47.438 4.2773 11.602 15.25 18.781 26.926 18.781 3.293 0 6.6445-0.56641 9.918-1.7734 14.867-5.4805 22.48-21.973 17.004-36.84-6.4297-17.426-10.785-31.277-13.418-41.691-0.71094-2.7617-1.2734-5.2578-1.7383-7.5312 3.5352 2.7695 5.8398 5.0391 6.1914 6.3828 2 7.9492 4.8867 17.379 8.5859 28.117 2.793 2.9531 5.1797 5.5547 6.9336 7.5039 1.1016 1.2188 1.9688 2.1914 2.5391 2.8398 0.56641 0.64844 0.78906 0.90234 0.78906 0.90234 5.6719 6.5742 13.684 9.9531 21.734 9.9531 0.92188 0 1.8398-0.054687 2.7617-0.14062 4.9219-0.47656 9.7617-2.2188 13.996-5.2773 4.2383 3.0586 9.0781 4.8008 14 5.2773 0.91797 0.085938 1.8359 0.14062 2.7578 0.14062 8.0508 0 16.066-3.3789 21.742-9.9531 0 0 0.21875-0.25781 0.79297-0.90234 0.56641-0.65234 1.4258-1.6211 2.5273-2.8398 1.7617-1.9492 4.1484-4.5508 6.9375-7.5078 3.6953-10.734 6.5781-20.16 8.5898-28.113 0.34766-1.3438 2.6562-3.6133 6.1914-6.3828-0.46484 2.2773-1.0273 4.7734-1.7383 7.5312-2.6328 10.414-7 24.266-13.418 41.691-5.4805 14.867 2.1289 31.359 17.004 36.84 3.2656 1.207 6.6172 1.7734 9.9141 1.7734 11.68 0 22.656-7.1797 26.926-18.781 1.3359-3.6328 2.5781-7.1055 3.7695-10.496-2.9453-1.2109-5.6328-3.0156-7.8906-5.3867-4.2383-4.4375-6.4766-10.258-6.3281-16.395 0.078125-3.2695 0.11328-6.4844 0.11328-9.6484 0-32.121-3.9922-60.469-11.605-83.258-6.7578 0.67578-11.918 2.6641-16.539 4.7109-5.5156 2.5469-10.301 5.5352-14.941 8.7773-6.4492 4.5391-12.574 9.6328-18.371 14.824 4.293-7.3711 9.4844-13.832 15.738-18.59 4.9531-3.7695 9.4648-6.2305 14.055-8.4141v-45.871c3.5625 3.6328 7.3828 8.3359 11.141 14.297 2.1016 3.3477 4.1914 7.0547 6.1914 11.234 0.015625 0.03125 0.035157 0.054688 0.050781 0.085938 10.254 21.211 18.867 53.812 18.867 102.2 0 3.2031-0.035156 6.4531-0.11328 9.7617-0.25 10.145 7.7695 18.559 17.914 18.805 0.14844 0.007813 0.29688 0.007813 0.45312 0.007813 9.9336 0 18.109-7.9297 18.344-17.922 0.085938-3.6367 0.12891-7.1875 0.12891-10.652 0-52.766-9.3984-91.035-22.59-118.29v0.007812c-2.2305-4.6055-4.5781-8.8633-6.9922-12.844-7.9375-13.078-16.711-22.902-25.324-29.91-5.6367-4.5664-11.18-7.9727-16.551-10.352-4.8477-2.0898-9.4258-3.4492-14.637-3.793-1.4883-0.40234-3.0195-0.6875-4.6289-0.6875h-20.141c-9.957 22.348-19.215 40.102-28.215 54.051-9.0156 13.84-28.273 37.414-58.062 35.195v3.0078c0.71094 0.28516 1.3945 0.58594 2.0547 0.87891z"/>
  <path d="m201.92 286.12 43.922-17.188c-0.45312-28.133-23.363-50.801-51.602-50.801-28.516 0-51.645 23.117-51.645 51.637 0 20.195 11.621 37.629 28.504 46.121 2.3945-5.2812 4.8008-10.688 7.1953-16.172 3.6562-8.3633 11.91-13.758 21.031-13.758 0.87109 0 1.7344 0.058594 2.5938 0.16016z"/>
  <path d="m240.19 293.27-19.391 7.5898c1.5156 4.0508 1.8555 8.3516 1.0273 12.512 7.7852-4.9336 14.141-11.863 18.363-20.102z"/>
  <path d="m458.45 112.09c-2.0195 2.957-3.207 6.5273-3.2031 10.375 0.09375 25.961 5.082 45.402 16.266 59.535 5.5586 6.9727 12.672 12.145 20.125 15.215 7.4688 3.1055 15.117 4.2266 22.336 4.2266 10.09-0.078125 19.52-2.1055 28.078-4.8867-0.89844 23.254-1.6094 52.477-6.9805 79.996 5.4219-5.6836 10.031-12.145 13.867-19.547 9.7695-19.141 11.188-40.391 11.152-51.348 0.015625-11.777-1.4766-19.73-1.4883-19.809-2.4023-12.383 5.7109-24.449 18.098-26.891 1.4766-0.29297 2.9688-0.44141 4.4648-0.44141 10.914 0 20.375 7.793 22.492 18.52 0.5625 2.9258 2.3438 13.445 2.3555 28.605-0.0625 26.762-5.4883 51.027-16.137 72.141-15.188 30.402-42.828 53.641-77.836 65.43-2.375 0.8125-4.8711 1.2305-7.3984 1.2305-9.1133 0-17.234-5.4141-20.898-13.625l-38.746 29.66c-9.9688 7.6406-13.809 20.848-9.4922 32.652l24.633 67.277c-6.3359 20.215-12.242 41.84-17.301 64.723-3.4102 15.477 6.375 30.789 21.852 34.191 2.0781 0.46094 4.1523 0.68359 6.1992 0.68359 13.176 0 25.047-9.1289 27.988-22.527 1.2617-5.7227 2.5977-11.34 3.9688-16.902 3.082-0.066406 6.1953-0.60937 9.25-1.7266 14.875-5.4531 22.52-21.93 17.082-36.812l-8.3203-22.719c10.668-31.156 22.219-58.156 32.594-79.844 5.2891-11.059 10.254-20.691 14.652-28.84 14.582-0.46484 29.172-7.1719 39.492-29.715 17.762-48.164 21.598-78.246 17.309-126.93-3.3242-35.387-28.434-52.41-48.625-52.27-3.7539 0.023437-7.3203 0.90234-10.637 2.4531-1.3008 0.51953-2.5703 1.1484-3.7695 1.9922l-0.15625 0.10156c-1.2109 0.83984-8.6406 5.7812-18.211 10.266-9.5078 4.5508-21.301 8.2969-29.531 8.1719-3.4297 0-6.1445-0.53906-8.2305-1.4102-3.0586-1.4102-5.4531-3.0508-8.4062-8.8555-2.6602-5.4258-5.0312-14.91-5.3203-29.223l-2.6719-1.043z"/>
  <path d="m412.38 88.145 3.4922-8.9414 56.535 22.078-3.4922 8.9414z"/>
  <path d="m490.91 109.18-14.477-5.6641-3.5 8.9414 23.34 9.1328 1.1055 0.43359 0.046875-0.11328c-2.6875-3.918-4.8711-8.1914-6.5156-12.73z"/>
  <path d="m420.59 57.379v16.07h4.5938s0.007812-6.8828 0-16.07c0.054687-4.0312 1.3398-6.4883 4.1484-8.418 2.8281-1.9141 7.5742-3.0742 14.211-3.0586 7.3984 0.007812 13.738-2.4766 18.211-6.6367 4.4727-4.1445 7.0508-9.9531 7.043-16.312 0.007812-5.3828 1.332-9.8828 4.3789-13.043 3.0391-3.1523 8.0469-5.3047 16.273-5.3164v-4.5938c-8.9883-0.015625-15.449 2.4219-19.582 6.7305-4.125 4.2891-5.6641 10.125-5.6562 16.219-0.070312 10.176-7.9219 18.273-20.668 18.363-7.125 0.015625-12.707 1.1484-16.762 3.8281-4.082 2.6602-6.2422 7.0938-6.1914 12.238z"/>
  <path d="m411.41 43.613c-0.007812-2.7188 0.29297-4.6172 0.77344-5.7852 0.49609-1.1719 0.99609-1.6914 1.9805-2.207 1.9492-1.0625 6.4336-1.2383 13.316-1.1953 2.7617-0.10547 4.2383 0.027344 6.0078-1.2969 0.58203-0.48438 1.0508-1.4414 1.0156-2.2539-0.25781-2.3477-1.4336-2.9297-2.5273-4.168-1.1484-1.1094-2.5703-2.3398-3.9609-3.7148-2.8086-2.7617-5.1914-6.0234-5.1328-9.2227 0.054688-4.4609 2.7812-6.418 7-7.8516 4.1406-1.3047 9.1172-1.3398 11.367-1.332v-4.5859c-2.3359 0-7.7031-0.027344-12.734 1.5391-4.9688 1.4258-10.273 5.2148-10.223 12.23 0.042969 5.0625 3.0859 8.9453 5.9219 11.898 1.5781 1.5742 3.2227 3.082 4.3594 4.1523-0.33203 0.015626-0.69141 0.015626-1.0898 0.015626-5.1758 0.011718-9.1094-0.019532-12.352 0.66016-3.2031 0.59766-6.0273 2.4609-7.2148 5.625-0.8125 2.0508-1.0898 4.4648-1.0938 7.4922v29.832h4.5859v-29.832z"/>
  <path d="m544.18 38.477c28.52 0.24609 51.434 23.562 51.188 52.078-0.25 28.516-23.566 51.43-52.086 51.184-28.516-0.25-51.43-23.566-51.184-52.082 0.25-28.516 23.566-51.43 52.082-51.18"/>
  <path d="m504.65 339.85c1.9609 0 3.9688-0.32031 5.9336-0.99219 38.402-12.93 62.434-37.59 75.199-63.148 12.898-25.578 15.598-51.477 15.641-70.074-0.015625-16.082-2.0977-26.867-2.2578-27.723-1.9609-9.9492-11.621-16.422-21.574-14.461-9.9336 1.957-16.395 11.582-14.469 21.512 0.054687 0.29297 1.5781 8.6211 1.5703 20.672 0.035156 14.914-2.4023 35.305-11.664 53.469-9.4141 18.164-24.578 34.68-54.312 44.996-9.6016 3.2656-14.719 13.711-11.449 23.305 2.6133 7.6367 9.7422 12.441 17.383 12.445z"/>
  <path d="m217.15 286.06 56.516-22.121 3.5 8.9414-56.516 22.121z"/>
  <path d="m213.11 288.27-2.2969 0.90234c1.3281 0.76953 2.5547 1.6523 3.6875 2.6562z"/>
  <path d="m277.78 259.36h2.7227s0.007812-6.8828 0-16.074c0.0625-4.0312 1.3398-6.4844 4.1484-8.4141 2.8359-1.9141 7.582-3.0703 14.215-3.0547 7.3984 0 13.738-2.4844 18.203-6.6406 4.4805-4.1445 7.0586-9.957 7.043-16.312 0.007813-5.3867 1.3398-9.8828 4.3867-13.043 3.0391-3.1602 8.0469-5.3125 16.266-5.3242v-4.5859c-8.9805-0.015624-15.441 2.4258-19.574 6.7305-4.1328 4.2969-5.6719 10.129-5.6641 16.223-0.0625 10.172-7.9219 18.273-20.66 18.359-7.1328 0.015626-12.707 1.1523-16.762 3.8281-4.0898 2.668-6.2461 7.0938-6.1836 12.234v13.863 2.207h1.8594z"/>
  <path d="m270.46 216.41c-3.207 0.59766-6.0273 2.4609-7.2188 5.625-0.8125 2.0586-1.0898 4.4648-1.0938 7.4922v29.836h4.5938v-29.836c-0.007813-2.7188 0.29297-4.6133 0.76562-5.7852 0.5-1.1719 1-1.6914 1.9805-2.207 1.957-1.0625 6.4375-1.2383 13.316-1.1914 2.7617-0.10547 4.2461 0.027344 6.0078-1.3008 0.58984-0.48047 1.0508-1.4336 1.0234-2.2539-0.26172-2.3438-1.4336-2.9297-2.5234-4.1602-1.1562-1.1172-2.5781-2.3438-3.9688-3.7188-2.8047-2.7656-5.1836-6.0234-5.1289-9.2266 0.046875-4.4609 2.7734-6.418 6.9883-7.8516 4.1484-1.3047 9.1172-1.3359 11.367-1.332l0.003907-4.5898c-2.3359 0.007813-7.6953-0.027343-12.734 1.543-4.9609 1.4258-10.273 5.2109-10.219 12.227 0.042968 5.0625 3.0859 8.9492 5.9141 11.898 1.5781 1.5742 3.2227 3.082 4.3594 4.1523-0.32422 0.015625-0.69141 0.015625-1.0898 0.015625-5.1719 0.011719-9.1055-0.019531-12.344 0.66406z"/>
  <path d="m141.14 409.59h0.15625c7.5039-0.027344 14.102-2.8906 19.816-6.8594 8.5977-6.0898 16.336-15.062 25.246-28.754 8.8516-13.711 18.648-32.27 29.781-57.695 4.0664-9.293-0.16797-20.117-9.4609-24.18-9.2852-4.0664-20.113 0.16797-24.176 9.457-14.078 32.211-25.578 51.691-33.688 62.016-3.543 4.5547-6.4102 7.2773-8.1016 8.5859-0.17969-0.035156-0.35547-0.035156-0.53516-0.066406 6.8203-6.6289 17.078-26.18 27.938-49.672h-18.211c-1.2891 0-2.5391 0.15234-3.75 0.41406-6.8633 0.70703-12.875 4.0078-16.848 7.707-6.9023 6.4297-10.211 13.703-12.672 21.012-2.3555 7.3594-3.5195 14.918-3.5391 22.41 0.019532 5.2344 0.53516 10.406 2.2852 15.844 1.7656 5.1953 4.8789 11.664 12.516 16.219 0.078124 0.046874 0.13672 0.10547 0.21484 0.14844 0.99219 0.56641 2.0508 1.0586 3.1445 1.4922 3.0703 1.2188 6.4961 1.9219 9.8828 1.9219z"/>
  <use x="73.484375" y="611.96875" xlink:href="#u"/>
  <use x="86.199219" y="611.96875" xlink:href="#e"/>
  <use x="94.742188" y="611.96875" xlink:href="#b"/>
  <use x="106.492188" y="611.96875" xlink:href="#d"/>
  <use x="118.179688" y="611.96875" xlink:href="#c"/>
  <use x="126.460938" y="611.96875" xlink:href="#b"/>
  <use x="138.210938" y="611.96875" xlink:href="#k"/>
  <use x="156.644531" y="611.96875" xlink:href="#j"/>
  <use x="169.042969" y="611.96875" xlink:href="#g"/>
  <use x="186.367188" y="611.96875" xlink:href="#i"/>
  <use x="200.585938" y="611.96875" xlink:href="#d"/>
  <use x="212.277344" y="611.96875" xlink:href="#f"/>
  <use x="230.640625" y="611.96875" xlink:href="#t"/>
  <use x="244.0625" y="611.96875" xlink:href="#h"/>
  <use x="256.394531" y="611.96875" xlink:href="#a"/>
  <use x="268.296875" y="611.96875" xlink:href="#a"/>
  <use x="280.199219" y="611.96875" xlink:href="#f"/>
  <use x="298.5625" y="611.96875" xlink:href="#s"/>
  <use x="309.601562" y="611.96875" xlink:href="#d"/>
  <use x="321.292969" y="611.96875" xlink:href="#g"/>
  <use x="73.484375" y="629.292969" xlink:href="#r"/>
  <use x="81.023438" y="629.292969" xlink:href="#e"/>
  <use x="89.566406" y="629.292969" xlink:href="#a"/>
  <use x="101.46875" y="629.292969" xlink:href="#q"/>
  <use x="125.546875" y="629.292969" xlink:href="#c"/>
  <use x="133.828125" y="629.292969" xlink:href="#h"/>
  <use x="146.164062" y="629.292969" xlink:href="#b"/>
  <use x="163.941406" y="629.292969" xlink:href="#p"/>
  <use x="178.441406" y="629.292969" xlink:href="#a"/>
  <use x="190.34375" y="629.292969" xlink:href="#o"/>
  <use x="202.675781" y="629.292969" xlink:href="#f"/>
  <use x="221.039063" y="629.292969" xlink:href="#n"/>
  <use x="233.734375" y="629.292969" xlink:href="#e"/>
  <use x="242.277344" y="629.292969" xlink:href="#a"/>
  <use x="254.179688" y="629.292969" xlink:href="#m"/>
  <use x="260.117188" y="629.292969" xlink:href="#b"/>
  <use x="271.867188" y="629.292969" xlink:href="#l"/>
  <use x="282.136719" y="629.292969" xlink:href="#c"/>
 </g>
</svg>
