<svg width="42" height="42" viewBox="0 0 42 42" fill="none" xmlns="http://www.w3.org/2000/svg">
<path d="M15.4219 15.4297H27.4057V16.587H15.4219V15.4297Z" fill="#282B30"/>
<path d="M16.7656 12.8906H26.2108V14.048H16.7656V12.8906Z" fill="#282B30"/>
<path d="M14.0391 17.9688H28.6365V19.3126H14.0391V17.9688Z" fill="#282B30"/>
<path d="M32.781 19.8346V10.3522C32.781 9.04555 31.6984 8.00023 30.3543 8.00023L12.5463 8C11.8743 8 11.2769 8.26133 10.829 8.7092C10.3811 9.15709 10.1198 9.71726 10.1198 10.3519V19.7971C9.97053 19.9092 9.82123 20.0212 9.7092 20.1705C9.26131 20.6931 9 21.3651 9 22.0745V30.5867C9 32.1174 10.1573 33.3493 11.6133 33.3493H31.2879C32.7439 33.3493 33.9012 32.1172 33.9012 30.5867L33.901 22.0373C33.8635 21.104 33.4528 20.3201 32.7809 19.8347L32.781 19.8346ZM25.7622 27.5254C25.7622 27.8987 25.4636 28.2346 25.053 28.2346L17.922 28.2348C17.5486 28.2348 17.2128 27.9362 17.2128 27.5256V25.7708C17.2128 25.3975 17.5114 25.0616 17.922 25.0616C18.3326 25.0616 18.6312 25.3602 18.6312 25.7708V26.8534H24.3806V25.7708C24.3806 25.3975 24.6792 25.0616 25.0898 25.0616C25.5004 25.0616 25.799 25.3602 25.799 25.7708L25.7993 27.5254L25.7622 27.5254ZM30.7649 20.6938H12.0233C11.65 20.6938 11.3141 20.3952 11.3141 19.9846C11.3141 19.6112 11.6127 19.2754 12.0233 19.2754H12.658V17.2592C12.658 16.8859 12.9566 16.55 13.3672 16.55H14.0391V14.6835C14.0391 14.3101 14.3377 13.9743 14.7483 13.9743H15.4203V12.1078C15.4203 11.7344 15.7189 11.3986 16.1295 11.3986H26.9565C27.3298 11.3986 27.6657 11.6972 27.6657 12.1078V13.9743L28.1143 13.9738C28.4876 13.9738 28.8235 14.2724 28.8235 14.683V16.5496H29.3461C29.7195 16.5496 30.0553 16.8482 30.0553 17.2588V19.2749H30.802C31.1754 19.2749 31.5112 19.5735 31.5112 19.9841C31.4742 20.395 31.1381 20.6938 30.765 20.6938L30.7649 20.6938Z" fill="#282B30"/>
</svg>
