<svg width="42" height="42" viewBox="0 0 42 42" fill="none" xmlns="http://www.w3.org/2000/svg">
<path fill-rule="evenodd" clip-rule="evenodd" d="M20.9998 8.25022C20.9998 8.25022 12.185 15.8598 7.2585 19.981C6.96964 20.2434 6.75 20.625 6.75 21.0754C6.75 21.8632 7.3872 22.5004 8.17502 22.5004H11.0251V32.4756C11.0251 33.2634 11.6623 33.9006 12.4501 33.9006H16.7249C17.5128 33.9006 18.15 33.2624 18.15 32.4756V26.7761L23.85 26.7754V32.4749C23.85 33.2619 24.4872 33.9002 25.2751 33.9002L29.5499 33.9004C30.3377 33.9004 30.9749 33.2632 30.9749 32.4754V22.5002H33.825C34.6128 22.5002 35.25 21.863 35.25 21.0752C35.25 20.6248 35.0308 20.2433 34.7044 19.9807C29.8126 15.8599 21.0006 8.25 21.0006 8.25H21.0004L20.9998 8.25022Z" fill="#282B30"/>
</svg>
