<svg width="18" height="18" viewBox="0 0 18 18" fill="none" xmlns="http://www.w3.org/2000/svg">
<g clip-path="url(#clip0_2540_501)">
<path d="M4.43353 9.125L13.3429 9.125C13.484 9.125 13.5898 9.01917 13.5898 8.87802L13.5898 8.56052C13.5898 7.67841 13.0077 6.91985 12.1609 6.72579L10.4142 6.28473C10.2907 6.24941 10.2202 6.14358 10.2378 6.03775L10.6612 2.70336C10.7317 2.1918 10.573 1.69769 10.2378 1.30969C9.88496 0.921561 9.40858 0.709885 8.89699 0.709885C8.3854 0.709885 7.90906 0.939272 7.55621 1.30969C7.2034 1.69782 7.07984 2.20941 7.13277 2.70336L7.55621 6.03775C7.57381 6.1789 7.4857 6.28473 7.37974 6.28473L5.63313 6.72579C4.78633 6.93746 4.20414 7.71372 4.20414 8.56052L4.20414 8.87802C4.18654 9.01917 4.29238 9.125 4.43353 9.125L4.43353 9.125ZM8.87937 1.45063C9.42625 1.45063 9.86731 1.90929 9.86731 2.43856C9.86731 2.98544 9.40864 3.42649 8.87937 3.42649C8.3325 3.42649 7.89144 2.96783 7.89144 2.43856C7.85612 1.90939 8.31479 1.45063 8.87937 1.45063Z" fill="#70767D"/>
<path d="M4.53985 9.45927L3.72825 17.0984C3.69293 17.2924 3.8694 17.4512 4.04575 17.4512L6.28634 17.4512C6.46282 17.4512 6.60384 17.31 6.62158 17.1337L6.79805 15.4224C6.81565 15.2812 6.90389 15.1754 7.02744 15.1578C7.20391 15.1225 7.36267 15.246 7.38025 15.4048L7.55672 17.1161C7.57432 17.2925 7.71548 17.4336 7.89196 17.4336L9.19752 17.4336C9.37399 17.4336 9.51501 17.2924 9.53275 17.1161L9.9033 13.6935C9.9209 13.5523 10.0091 13.4465 10.1327 13.4289C10.3092 13.3936 10.4679 13.5171 10.4855 13.6759L10.8561 17.0985C10.8736 17.275 11.0148 17.416 11.1913 17.416L11.6323 17.416C11.8088 17.416 11.9498 17.2748 11.9676 17.0985L12.144 15.3872C12.1616 15.246 12.2499 15.1402 12.3734 15.1226C12.5499 15.0873 12.7087 15.2108 12.7262 15.3696L12.9027 17.0809C12.9203 17.2574 13.0615 17.3984 13.238 17.3984L13.6966 17.3984C13.8907 17.3984 14.0319 17.2396 14.0141 17.0456L13.2025 9.40648L4.53985 9.45927Z" fill="#70767D"/>
</g>
<defs>
<clipPath id="clip0_2540_501">
<rect width="18" height="18" fill="white" transform="translate(18 18) rotate(180)"/>
</clipPath>
</defs>
</svg>
