<svg width="27" height="26" viewBox="0 0 27 26" fill="none" xmlns="http://www.w3.org/2000/svg">
<path d="M21.8777 7.25045e-05C20.5309 -0.00361137 19.239 0.531684 18.2898 1.48694L9.83031 9.94489C8.30036 11.4661 7.44301 13.5361 7.44925 15.6934V19.5001H11.2566C13.4129 19.5055 15.4816 18.6483 17.002 17.1195L25.4659 8.65715C26.4154 7.7053 26.9482 6.41568 26.9476 5.07129C26.9468 3.72697 26.4125 2.43785 25.4622 1.48716C24.5115 0.536175 23.2225 0.00145089 21.8782 0L21.8777 7.25045e-05ZM23.1659 6.36185L14.7057 14.8198C13.7933 15.7382 12.5511 16.2531 11.2561 16.2497H10.6994V15.6932C10.6949 14.399 11.2085 13.1569 12.1256 12.2442L20.5895 3.78189C20.9239 3.40812 21.3973 3.1885 21.8986 3.17461C22.3997 3.16073 22.8847 3.35342 23.2393 3.70821C23.5939 4.06272 23.7869 4.54726 23.773 5.04862C23.7591 5.54991 23.5394 6.02318 23.1656 6.35753L23.1659 6.36185Z" fill="#282B30"/>
<path d="M5.82507 25.9999H20.4527C21.7457 25.9999 22.986 25.4864 23.9004 24.5719C24.8148 23.6577 25.3286 22.418 25.3286 21.1249V14.6248H22.0779V21.1249C22.0779 21.5559 21.9068 21.9691 21.6018 22.274C21.2971 22.5786 20.8836 22.7498 20.4528 22.7498H5.8251C5.39401 22.7498 4.98075 22.5786 4.67579 22.274C4.3711 21.9691 4.19991 21.5559 4.19991 21.1249V6.49994C4.19991 6.06921 4.3711 5.65575 4.67579 5.35113C4.98076 5.04622 5.39399 4.87506 5.8251 4.87506H12.3264V1.625H5.8251C4.53183 1.625 3.29182 2.13876 2.37745 3.05296C1.46285 3.96717 0.949219 5.20717 0.949219 6.49998V21.1249C0.949219 22.418 1.46279 23.6577 2.37745 24.5719C3.29182 25.4864 4.53176 25.9999 5.8251 25.9999L5.82507 25.9999Z" fill="#282B30"/>
</svg>
