<svg width="155" height="36" viewBox="0 0 155 36" fill="none" xmlns="http://www.w3.org/2000/svg">
<path d="M7.83594 4.625L15.6172 27.6641L23.4219 4.46094C23.8281 3.24219 24.1328 2.39844 24.3359 1.92969C24.5391 1.44531 24.875 1.01562 25.3438 0.640625C25.8125 0.25 26.4531 0.0546875 27.2656 0.0546875C27.8594 0.0546875 28.4062 0.203125 28.9062 0.5C29.4219 0.796875 29.8203 1.19531 30.1016 1.69531C30.3984 2.17969 30.5469 2.67188 30.5469 3.17188C30.5469 3.51563 30.5 3.89063 30.4062 4.29688C30.3125 4.6875 30.1953 5.07812 30.0547 5.46875C29.9141 5.84375 29.7734 6.23438 29.6328 6.64062L21.3125 29.0938C21.0156 29.9531 20.7188 30.7734 20.4219 31.5547C20.125 32.3203 19.7812 33 19.3906 33.5938C19 34.1719 18.4766 34.6484 17.8203 35.0234C17.1797 35.3984 16.3906 35.5859 15.4531 35.5859C14.5156 35.5859 13.7188 35.3984 13.0625 35.0234C12.4219 34.6641 11.8984 34.1875 11.4922 33.5938C11.1016 32.9844 10.7578 32.2969 10.4609 31.5312C10.1641 30.7656 9.86719 29.9531 9.57031 29.0938L1.39062 6.82812C1.25 6.42188 1.10156 6.02344 0.945312 5.63281C0.804688 5.24219 0.679688 4.82031 0.570312 4.36719C0.476562 3.91406 0.429688 3.53125 0.429688 3.21875C0.429688 2.42188 0.75 1.69531 1.39062 1.03906C2.03125 0.382812 2.83594 0.0546875 3.80469 0.0546875C4.99219 0.0546875 5.82812 0.421875 6.3125 1.15625C6.8125 1.875 7.32031 3.03125 7.83594 4.625ZM42.2938 13.2031V31.6953C42.2938 32.9766 41.9891 33.9453 41.3797 34.6016C40.7703 35.2578 39.9969 35.5859 39.0594 35.5859C38.1219 35.5859 37.3563 35.25 36.7625 34.5781C36.1844 33.9062 35.8953 32.9453 35.8953 31.6953V13.3906C35.8953 12.125 36.1844 11.1719 36.7625 10.5312C37.3563 9.89062 38.1219 9.57031 39.0594 9.57031C39.9969 9.57031 40.7703 9.89062 41.3797 10.5312C41.9891 11.1719 42.2938 12.0625 42.2938 13.2031ZM39.1297 6.59375C38.2391 6.59375 37.4734 6.32031 36.8328 5.77344C36.2078 5.22656 35.8953 4.45313 35.8953 3.45312C35.8953 2.54687 36.2156 1.80469 36.8563 1.22656C37.5125 0.632813 38.2703 0.335938 39.1297 0.335938C39.9578 0.335938 40.6922 0.601562 41.3328 1.13281C41.9734 1.66406 42.2938 2.4375 42.2938 3.45312C42.2938 4.4375 41.9813 5.21094 41.3563 5.77344C40.7313 6.32031 39.9891 6.59375 39.1297 6.59375ZM55.9391 13.1094V13.8828C57.0641 12.3984 58.2906 11.3125 59.6188 10.625C60.9625 9.92188 62.5016 9.57031 64.2359 9.57031C65.9234 9.57031 67.4313 9.9375 68.7594 10.6719C70.0875 11.4062 71.0797 12.4453 71.7359 13.7891C72.1578 14.5703 72.4313 15.4141 72.5563 16.3203C72.6813 17.2266 72.7438 18.3828 72.7438 19.7891V31.6953C72.7438 32.9766 72.4469 33.9453 71.8531 34.6016C71.275 35.2578 70.5172 35.5859 69.5797 35.5859C68.6266 35.5859 67.8531 35.25 67.2594 34.5781C66.6656 33.9062 66.3688 32.9453 66.3688 31.6953V21.0312C66.3688 18.9219 66.0719 17.3125 65.4781 16.2031C64.9 15.0781 63.7359 14.5156 61.9859 14.5156C60.8453 14.5156 59.8063 14.8594 58.8688 15.5469C57.9313 16.2188 57.2438 17.1484 56.8063 18.3359C56.4938 19.2891 56.3375 21.0703 56.3375 23.6797V31.6953C56.3375 32.9922 56.0328 33.9688 55.4234 34.625C54.8297 35.2656 54.0563 35.5859 53.1031 35.5859C52.1813 35.5859 51.4234 35.25 50.8297 34.5781C50.2359 33.9062 49.9391 32.9453 49.9391 31.6953V13.2031C49.9391 11.9844 50.2047 11.0781 50.7359 10.4844C51.2672 9.875 51.9938 9.57031 52.9156 9.57031C53.4781 9.57031 53.9859 9.70312 54.4391 9.96875C54.8922 10.2344 55.2516 10.6328 55.5172 11.1641C55.7984 11.6953 55.9391 12.3438 55.9391 13.1094ZM104.295 22.5781C104.295 24.4844 103.998 26.2422 103.405 27.8516C102.811 29.4609 101.952 30.8438 100.827 32C99.7016 33.1562 98.3578 34.0469 96.7953 34.6719C95.2328 35.2812 93.475 35.5859 91.5219 35.5859C89.5844 35.5859 87.8422 35.2734 86.2953 34.6484C84.7484 34.0234 83.4047 33.1328 82.2641 31.9766C81.1391 30.8047 80.2797 29.4297 79.6859 27.8516C79.1078 26.2578 78.8187 24.5 78.8187 22.5781C78.8187 20.6406 79.1156 18.8672 79.7094 17.2578C80.3031 15.6484 81.1547 14.2734 82.2641 13.1328C83.3734 11.9922 84.7172 11.1172 86.2953 10.5078C87.8734 9.88281 89.6156 9.57031 91.5219 9.57031C93.4594 9.57031 95.2172 9.88281 96.7953 10.5078C98.3734 11.1328 99.725 12.0234 100.85 13.1797C101.975 14.3359 102.827 15.7109 103.405 17.3047C103.998 18.8984 104.295 20.6562 104.295 22.5781ZM97.8734 22.5781C97.8734 19.9688 97.2953 17.9375 96.1391 16.4844C94.9984 15.0312 93.4594 14.3047 91.5219 14.3047C90.2719 14.3047 89.1703 14.6328 88.2172 15.2891C87.2641 15.9297 86.5297 16.8828 86.0141 18.1484C85.4984 19.4141 85.2406 20.8906 85.2406 22.5781C85.2406 24.25 85.4906 25.7109 85.9906 26.9609C86.5062 28.2109 87.2328 29.1719 88.1703 29.8438C89.1234 30.5 90.2406 30.8281 91.5219 30.8281C93.4594 30.8281 94.9984 30.1016 96.1391 28.6484C97.2953 27.1797 97.8734 25.1562 97.8734 22.5781ZM116.909 26.3516V31.6953C116.909 32.9922 116.605 33.9688 115.995 34.625C115.386 35.2656 114.613 35.5859 113.675 35.5859C112.753 35.5859 111.995 35.2578 111.402 34.6016C110.808 33.9453 110.511 32.9766 110.511 31.6953V13.8828C110.511 11.0078 111.55 9.57031 113.628 9.57031C114.691 9.57031 115.456 9.90625 115.925 10.5781C116.394 11.25 116.652 12.2422 116.698 13.5547C117.464 12.2422 118.245 11.25 119.042 10.5781C119.855 9.90625 120.933 9.57031 122.277 9.57031C123.62 9.57031 124.925 9.90625 126.191 10.5781C127.456 11.25 128.089 12.1406 128.089 13.25C128.089 14.0312 127.816 14.6797 127.269 15.1953C126.738 15.6953 126.159 15.9453 125.534 15.9453C125.3 15.9453 124.73 15.8047 123.823 15.5234C122.933 15.2266 122.144 15.0781 121.456 15.0781C120.519 15.0781 119.753 15.3281 119.159 15.8281C118.566 16.3125 118.105 17.0391 117.777 18.0078C117.448 18.9766 117.222 20.1328 117.097 21.4766C116.972 22.8047 116.909 24.4297 116.909 26.3516ZM154.93 22.5781C154.93 24.4844 154.633 26.2422 154.039 27.8516C153.445 29.4609 152.586 30.8438 151.461 32C150.336 33.1562 148.992 34.0469 147.43 34.6719C145.867 35.2812 144.109 35.5859 142.156 35.5859C140.219 35.5859 138.477 35.2734 136.93 34.6484C135.383 34.0234 134.039 33.1328 132.898 31.9766C131.773 30.8047 130.914 29.4297 130.32 27.8516C129.742 26.2578 129.453 24.5 129.453 22.5781C129.453 20.6406 129.75 18.8672 130.344 17.2578C130.938 15.6484 131.789 14.2734 132.898 13.1328C134.008 11.9922 135.352 11.1172 136.93 10.5078C138.508 9.88281 140.25 9.57031 142.156 9.57031C144.094 9.57031 145.852 9.88281 147.43 10.5078C149.008 11.1328 150.359 12.0234 151.484 13.1797C152.609 14.3359 153.461 15.7109 154.039 17.3047C154.633 18.8984 154.93 20.6562 154.93 22.5781ZM148.508 22.5781C148.508 19.9688 147.93 17.9375 146.773 16.4844C145.633 15.0312 144.094 14.3047 142.156 14.3047C140.906 14.3047 139.805 14.6328 138.852 15.2891C137.898 15.9297 137.164 16.8828 136.648 18.1484C136.133 19.4141 135.875 20.8906 135.875 22.5781C135.875 24.25 136.125 25.7109 136.625 26.9609C137.141 28.2109 137.867 29.1719 138.805 29.8438C139.758 30.5 140.875 30.8281 142.156 30.8281C144.094 30.8281 145.633 30.1016 146.773 28.6484C147.93 27.1797 148.508 25.1562 148.508 22.5781Z" fill="#282B30"/>
</svg>
