<svg width="24" height="24" viewBox="0 0 24 24" fill="none" xmlns="http://www.w3.org/2000/svg">
<path d="M12 0C5.38168 0 0 5.38168 0 12C0 18.6183 5.38168 24 12 24C18.6183 24 24 18.6183 24 12C24 5.38168 18.6183 0 12 0ZM18.9847 8.67939L10.9237 16.7405C10.7062 17.0725 10.3511 17.2787 9.95038 17.2787C9.57262 17.2787 9.19459 17.084 8.9771 16.7635L5.0152 12.8131C4.7977 12.5956 4.68319 12.3093 4.68319 12C4.68319 11.6908 4.7977 11.4045 5.0152 11.187C5.46171 10.7405 6.18327 10.7405 6.62977 11.187L9.93886 14.4961L17.3698 7.06512C17.5758 6.84762 17.8736 6.72161 18.1714 6.72161C18.4806 6.72161 18.7669 6.84762 18.9844 7.06512C19.2019 7.27112 19.3164 7.55738 19.3164 7.86665C19.3164 8.17591 19.2022 8.46187 18.9847 8.67939Z" fill="white"/>
</svg>
