<svg width="24" height="24" viewBox="0 0 24 24" fill="none" xmlns="http://www.w3.org/2000/svg">
<path d="M11.9258 22.275C6.69453 22.275 1.05078 18.9938 1.05078 11.7938C1.05078 4.59375 6.69453 1.3125 11.9258 1.3125C14.832 1.3125 17.5133 2.26875 19.5008 4.0125C21.657 5.925 22.8008 8.625 22.8008 11.7938C22.8008 14.9625 21.657 17.6438 19.5008 19.5563C17.5133 21.3 14.8133 22.275 11.9258 22.275Z" fill="url(#paint0_radial_2798_449)"/>
<path d="M20.9037 5.5625C21.9031 7.175 22.4244 9.095 22.4244 11.2306C22.4244 14.3994 21.2806 17.0806 19.1244 18.9931C17.1369 20.7369 14.4369 21.7119 11.5494 21.7119C8.16312 21.7119 4.61187 20.3338 2.51562 17.4106C4.53312 20.7219 8.32812 22.2744 11.9244 22.2744C14.8119 22.2744 17.5119 21.2994 19.4994 19.5556C21.6556 17.6431 22.7994 14.9619 22.7994 11.7931C22.7994 9.40438 22.1487 7.28188 20.9037 5.5625V5.5625Z" fill="#EB8F00"/>
<path d="M8.25 7.67578C7.46437 7.67578 6.75 8.33953 6.75 9.44203C6.75 10.5445 7.46437 11.2064 8.25 11.2064C9.0375 11.2064 9.75 10.5427 9.75 9.44203C9.75 8.34141 9.045 7.67578 8.25 7.67578Z" fill="#422B0D"/>
<path d="M8.18257 8.41359C8.05418 8.35251 7.90686 8.34465 7.7727 8.39171C7.63854 8.43877 7.52842 8.53694 7.46632 8.66484C7.36694 8.87296 7.41194 9.12234 7.57882 9.28359C7.84507 9.41109 8.16569 9.29859 8.29507 9.03234C8.39444 8.82421 8.34944 8.57484 8.18257 8.41359Z" fill="#896024"/>
<path d="M15.4492 7.67578C14.6636 7.67578 13.9492 8.33953 13.9492 9.44203C13.9492 10.5445 14.6636 11.2064 15.4492 11.2064C16.2348 11.2064 16.9492 10.5427 16.9492 9.44203C16.9492 8.34141 16.2348 7.67578 15.4492 7.67578Z" fill="#422B0D"/>
<path d="M15.374 8.41359C15.2456 8.35251 15.0983 8.34465 14.9641 8.39171C14.8299 8.43877 14.7198 8.53694 14.6577 8.66484C14.5584 8.87296 14.6034 9.12234 14.7702 9.28359C15.0365 9.41109 15.3571 9.29859 15.4865 9.03234C15.5859 8.82421 15.5409 8.57484 15.374 8.41359Z" fill="#896024"/>
<path d="M12.0338 14.6604C13.7345 14.6454 15.362 15.3616 16.5001 16.6254C16.5863 16.7248 16.607 16.8654 16.5526 16.9854C16.4982 17.1073 16.3782 17.186 16.2451 17.1879C16.1851 17.1879 16.1251 17.171 16.0726 17.141C15.1688 16.6216 13.6576 15.9766 12.0376 15.9766H12.0113C10.3932 15.9766 8.88009 16.6216 7.97822 17.141C7.92572 17.171 7.86572 17.1879 7.80572 17.1879C7.67259 17.186 7.55447 17.1073 7.50009 16.9854C7.44384 16.8654 7.46447 16.7248 7.55259 16.6254C8.11521 16.0005 8.80412 15.5022 9.57374 15.1634C10.3434 14.8247 11.1761 14.6532 12.017 14.6604" fill="#422B0D"/>
<defs>
<radialGradient id="paint0_radial_2798_449" cx="0" cy="0" r="1" gradientUnits="userSpaceOnUse" gradientTransform="translate(11.9258 11.7938) scale(10.68)">
<stop offset="0.5" stop-color="#FDE030"/>
<stop offset="0.92" stop-color="#F7C02B"/>
<stop offset="1" stop-color="#F4A223"/>
</radialGradient>
</defs>
</svg>
