<svg width="32" height="32" viewBox="0 0 32 32" fill="none" xmlns="http://www.w3.org/2000/svg">
<path fill-rule="evenodd" clip-rule="evenodd" d="M25.3685 26.6466H18.7125C18.0054 26.6466 17.4325 26.0737 17.4325 25.3666V24.8546C17.4325 24.1475 18.0054 23.5746 18.7125 23.5746H25.3685C26.0757 23.5746 26.6485 24.1475 26.6485 24.8546V25.3666C26.6485 26.0737 26.0757 26.6466 25.3685 26.6466ZM25.3685 20.5026H18.7125C18.0054 20.5026 17.4325 19.9297 17.4325 19.2226V18.7106C17.4325 18.0035 18.0054 17.4306 18.7125 17.4306H25.3685C26.0757 17.4306 26.6485 18.0035 26.6485 18.7106V19.2226C26.6485 19.9295 26.0757 20.5026 25.3685 20.5026ZM25.3685 14.3586H18.7125C18.0054 14.3586 17.4325 13.7857 17.4325 13.0786V12.5666C17.4325 11.8595 18.0054 11.2866 18.7125 11.2866H25.3685C26.0757 11.2866 26.6485 11.8595 26.6485 12.5666V13.0786C26.6485 13.7854 26.0757 14.3586 25.3685 14.3586ZM25.3685 8.21458H18.7125C18.0054 8.21458 17.4325 7.64173 17.4325 6.93458V6.42262C17.4325 5.71584 18.0054 5.14262 18.7125 5.14262H25.3685C26.0757 5.14262 26.6485 5.71584 26.6485 6.42262V6.93458C26.6485 7.64137 26.0757 8.21458 25.3685 8.21458ZM13.0805 26.6466H6.42453C5.71774 26.6466 5.14453 26.0737 5.14453 25.3666V18.7106C5.14453 18.0034 5.71774 17.4306 6.42453 17.4306H13.0805C13.7877 17.4306 14.3605 18.0034 14.3605 18.7106V25.3666C14.3605 26.0737 13.7877 26.6466 13.0805 26.6466ZM13.0805 14.3586H6.42453C5.71774 14.3586 5.14453 13.7857 5.14453 13.0786V6.42258C5.14453 5.71579 5.71774 5.14258 6.42453 5.14258H13.0805C13.7877 5.14258 14.3605 5.71579 14.3605 6.42258V13.0786C14.3605 13.7854 13.7877 14.3586 13.0805 14.3586Z" fill="#282B30"/>
</svg>
