<svg width="100" height="100" viewBox="0 0 100 100" fill="none" xmlns="http://www.w3.org/2000/svg">
<path d="M40.0643 0H32.9766V4.47378H40.0643V0Z" fill="#282B30"/>
<path d="M40.0653 25.33V5.7793H33.0144V25.33C33.0144 25.33 23 29.6748 23 38.769V83.2448C23.0043 84.591 23.5375 85.8817 24.4842 86.8389C25.431 87.7961 26.7162 88.3435 28.0624 88.3626H44.9984C46.3465 88.3478 47.6341 87.8023 48.5815 86.8444C49.5294 85.886 50.0614 84.5927 50.0614 83.2448V38.7674C50.0614 29.6733 40.0648 25.329 40.0648 25.329L40.0653 25.33ZM29.7926 29.9874C30.6518 29.5165 31.6373 29.3297 32.6095 29.4536C29.2114 31.4557 26.6102 34.5709 25.2456 38.2716C25.7794 33.1353 28.1357 30.9077 29.7926 29.9875V29.9874ZM45.9018 69.4012H27.1243V49.4639H45.9018V69.4012Z" fill="#282B30"/>
<path d="M75.8174 65.0766C75.5431 64.7764 75.1566 64.6032 74.7498 64.5977H56.9475C56.5376 64.6007 56.1487 64.7764 55.8756 65.0809C55.6019 65.386 55.4701 65.7922 55.5113 66.1996C56.174 73.0298 56.8735 80.0435 57.5362 86.8549V87.0577V87.0571C57.6114 87.7955 58.2302 88.3589 58.9723 88.3644H72.6874C73.4363 88.3681 74.0657 87.8023 74.1415 87.0571C74.4361 84.0195 74.7307 80.9635 75.0432 77.8526H75.0438C75.1166 77.6831 75.1603 77.5031 75.1727 77.3188C75.1813 77.2085 75.1813 77.0976 75.1727 76.9872C75.5221 73.3974 75.8723 69.7891 76.2217 66.2547C76.2649 65.822 76.117 65.3911 75.8168 65.0768L75.8174 65.0766ZM72.3563 75.4774C72.1788 75.3893 72.0068 75.2913 71.841 75.1828C70.8369 74.5337 69.6671 74.1886 68.4718 74.1886C67.2765 74.1886 66.1068 74.5337 65.1032 75.1828C64.5442 75.5551 63.8877 75.7536 63.2159 75.7536C62.5446 75.7536 61.8882 75.5551 61.3291 75.1828C60.6832 74.7661 59.9651 74.4727 59.2119 74.318C58.9912 72.0355 58.7514 69.6792 58.5308 67.4879H73.1477C72.8715 70.139 72.6139 72.8633 72.3562 75.4775L72.3563 75.4774Z" fill="#282B30"/>
</svg>
