<svg width="42" height="42" viewBox="0 0 42 42" fill="none" xmlns="http://www.w3.org/2000/svg">
<path d="M33.0001 16.3504H32.3849L25.3427 9.30821C24.932 8.89758 24.2686 8.89758 23.8579 9.30821C23.4473 9.71884 23.4473 10.3823 23.8579 10.793L29.4157 16.3507L12.4351 16.3505L17.9928 10.7927C18.4034 10.3821 18.4034 9.71862 17.9928 9.30798C17.5822 8.89734 16.9187 8.89735 16.508 9.30798L9.46524 16.3508H8.85C7.6908 16.3508 6.75 17.2916 6.75 18.4508C6.75 19.61 7.6908 20.5508 8.85 20.5508H33C34.1592 20.5508 35.1 19.61 35.1 18.4508C35.1 17.2916 34.1592 16.3508 33 16.3508L33.0001 16.3504Z" fill="#282B30"/>
<path d="M8.85062 21.5995C8.80328 21.5995 8.75828 21.589 8.71094 21.5859L11.0041 31.5219C11.2246 32.4742 12.073 33.1494 13.0506 33.1494H28.8006C29.7792 33.1494 30.6255 32.4742 30.8472 31.5219L33.1403 21.5859C33.0929 21.589 33.0479 21.5995 33.0006 21.5995H8.85062ZM16.2006 29.4745C16.2006 30.0541 15.7302 30.5245 15.1506 30.5245C14.571 30.5245 14.1006 30.0541 14.1006 29.4745V25.2745C14.1006 24.6949 14.571 24.2245 15.1506 24.2245C15.7302 24.2245 16.2006 24.6949 16.2006 25.2745V29.4745ZM21.9756 29.4745C21.9756 30.0541 21.5052 30.5245 20.9256 30.5245C20.346 30.5245 19.8756 30.0541 19.8756 29.4745V25.2745C19.8756 24.6949 20.346 24.2245 20.9256 24.2245C21.5052 24.2245 21.9756 24.6949 21.9756 25.2745V29.4745ZM27.7506 29.4745C27.7506 30.0541 27.2802 30.5245 26.7006 30.5245C26.121 30.5245 25.6506 30.0541 25.6506 29.4745V25.2745C25.6506 24.6949 26.121 24.2245 26.7006 24.2245C27.2802 24.2245 27.7506 24.6949 27.7506 25.2745V29.4745Z" fill="#282B30"/>
</svg>
