<svg width="20" height="20" viewBox="0 0 20 20" fill="none" xmlns="http://www.w3.org/2000/svg">
<path d="M13.6202 10.9044H10.903V13.6216C10.903 13.9452 10.7304 14.2442 10.4502 14.406C10.17 14.5678 9.82462 14.5678 9.54441 14.406C9.26419 14.2442 9.09165 13.9452 9.09165 13.6216V10.9044H6.37446C6.05089 10.9044 5.75188 10.7319 5.59009 10.4517C5.4283 10.1715 5.4283 9.82607 5.59009 9.54585C5.75188 9.26564 6.05089 9.09309 6.37446 9.09309H9.09165V6.37591C9.09165 6.05234 9.2642 5.75333 9.54441 5.59154C9.82462 5.42975 10.17 5.42975 10.4502 5.59154C10.7304 5.75333 10.903 6.05233 10.903 6.37591V9.09309H13.6202C13.9438 9.09309 14.2428 9.26565 14.4046 9.54585C14.5663 9.82607 14.5663 10.1715 14.4046 10.4517C14.2428 10.7319 13.9438 10.9044 13.6202 10.9044Z" fill="#282B30"/>
<path d="M9.99855 19.0565C7.59644 19.0565 5.29278 18.1023 3.59415 16.4037C1.8956 14.7052 0.941406 12.4013 0.941406 9.99934C0.941406 7.59736 1.8956 5.29357 3.59415 3.59495C5.2927 1.8964 7.59656 0.942202 9.99855 0.942202C12.4005 0.942202 14.7043 1.8964 16.4029 3.59495C18.1015 5.2935 19.0557 7.59736 19.0557 9.99934C19.0557 11.5892 18.6372 13.1511 17.8424 14.5281C17.0474 15.9049 15.9039 17.0483 14.5272 17.8433C13.1502 18.6382 11.5883 19.0566 9.99839 19.0566L9.99855 19.0565ZM9.99855 2.7534C8.0768 2.7534 6.23378 3.51685 4.87511 4.87575C3.51621 6.23449 2.75276 8.07752 2.75276 9.99919C2.75276 11.9209 3.51621 13.764 4.87511 15.1226C6.23385 16.4815 8.07688 17.245 9.99855 17.245C11.9202 17.245 13.7633 16.4815 15.122 15.1226C16.4809 13.7639 17.2443 11.9209 17.2443 9.99919C17.2443 8.72731 16.9095 7.47776 16.2734 6.37633C15.6375 5.27475 14.7229 4.36014 13.6213 3.72421C12.5199 3.08812 11.2703 2.75332 9.99847 2.75332L9.99855 2.7534Z" fill="#282B30"/>
</svg>
