<svg width="32" height="32" viewBox="0 0 32 32" fill="none" xmlns="http://www.w3.org/2000/svg">
<path d="M22.2899 20.1653L18.1106 15.9885L22.2867 11.8092C22.7683 11.3292 22.7683 10.5572 22.2883 10.0756L21.9003 9.68688C21.6723 9.45331 21.3603 9.32617 21.0323 9.32617H21.0307C20.7026 9.32617 20.3946 9.45492 20.1642 9.68617L15.9866 13.8669L11.8073 9.69079C11.328 9.21079 10.5569 9.20846 10.0753 9.68847L9.68654 10.0733C9.45208 10.3029 9.32422 10.6149 9.32422 10.942C9.32422 11.2708 9.45297 11.5804 9.68422 11.8108L13.8649 15.9885L9.68815 20.1678C9.20655 20.6478 9.20655 21.4198 9.68654 21.903L10.0746 22.291C10.3042 22.5246 10.6153 22.6517 10.9433 22.6517C11.2698 22.6517 11.5817 22.5214 11.8114 22.2917L15.9881 18.1117L20.1658 22.2869C20.4026 22.5262 20.7178 22.6469 21.0338 22.6469C21.3467 22.6469 21.6603 22.5276 21.8994 22.2892L22.2874 21.902C22.5226 21.674 22.6498 21.3621 22.6498 21.034C22.6514 20.706 22.5226 20.3964 22.2914 20.1653L22.2899 20.1653Z" fill="#282B30"/>
</svg>
