<svg width="560" height="561" viewBox="0 0 560 561" fill="none" xmlns="http://www.w3.org/2000/svg">
<path d="M51.417 441.89C70.87 426.605 95.882 415.488 120.897 404.37C136.182 397.421 151.467 389.085 165.362 382.136C191.764 366.851 201.491 334.89 188.983 307.097C158.413 240.398 155.631 145.907 225.112 100.047C258.464 77.813 301.538 77.813 336.282 100.047C404.372 145.902 401.591 240.397 371.02 307.097C358.512 334.89 368.243 366.847 394.641 382.136C408.536 389.085 425.211 397.421 439.106 404.37C465.508 415.487 490.52 426.604 508.586 441.89C541.938 396.035 560 340.45 560 280.7C560 125.07 434.94 0 280.7 0C125.07 0 0 125.06 0 280.7C0 340.45 19.453 396.04 51.414 441.89H51.417Z" fill="#282B30"/>
<path d="M491.918 464.12C475.242 450.225 451.621 440.499 427.996 429.382C412.711 421.046 396.035 414.097 380.75 405.761C343.23 383.527 327.945 336.281 346.012 295.981C371.024 241.786 376.582 161.191 321 123.671C295.988 106.995 265.418 106.995 240.406 123.671C183.433 161.191 188.992 241.781 214.004 295.981C233.457 336.278 218.172 383.524 179.266 405.761C163.981 414.097 148.696 421.046 132.02 429.382C108.399 440.499 84.7737 450.226 68.0977 464.12C119.512 522.483 195.938 560.003 280.708 560.003C364.083 560.003 440.508 522.483 491.918 464.12Z" fill="#282B30"/>
</svg>
