<svg width="30" height="36" viewBox="0 0 30 36" fill="none" xmlns="http://www.w3.org/2000/svg">
<path d="M19.008 34.616C17.664 35.064 16.448 35.288 15.36 35.288C13.728 35.288 12.448 34.696 11.52 33.512C10.624 32.296 9.888 30.584 9.312 28.376C9.184 27.896 8.736 26.136 7.968 23.096C6.464 17.144 5.248 12.84 4.32 10.184C3.392 7.496 2.032 5.464 0.24 4.088C0.624 3.128 1.248 2.36 2.112 1.784C3.008 1.208 4.048 0.919998 5.232 0.919998C6.416 0.919998 7.392 1.384 8.16 2.312C8.928 3.208 9.536 4.312 9.984 5.624C10.464 6.936 10.88 8.2 11.232 9.416C11.584 10.632 11.952 12.136 12.336 13.928C12.752 15.72 13.072 17.176 13.296 18.296C13.552 19.384 13.936 21.272 14.448 23.96C14.992 26.616 15.392 28.552 15.648 29.768C21.024 15.752 23.712 6.392 23.712 1.688C23.712 1.272 23.696 0.967999 23.664 0.775997C24.144 0.679998 24.64 0.631999 25.152 0.631999C26.432 0.631999 27.472 0.951999 28.272 1.592C29.104 2.2 29.52 3.08 29.52 4.232C29.52 5.832 27.936 10.568 24.768 18.44C21.632 26.28 19.712 31.672 19.008 34.616Z" fill="#282B30"/>
</svg>
