<svg width="28" height="28" viewBox="0 0 28 28" fill="none" xmlns="http://www.w3.org/2000/svg">
<path d="M13.0616 12.6211C12.456 12.6211 12.1947 13.1631 12.1211 13.5473H13.9151C13.9063 13.373 13.8597 13.0582 13.6474 12.8417C13.5035 12.6953 13.3064 12.6211 13.0616 12.6211L13.0616 12.6211Z" fill="#D0021B"/>
<path d="M25.5828 12.3423L24.5671 12.0421C24.0199 11.8809 23.5874 11.4602 23.4113 10.9178C23.2349 10.3752 23.3374 9.78081 23.6853 9.32887L24.3308 8.49024C25.3826 7.12421 24.0056 5.2286 22.3811 5.80685L21.384 6.16121C20.8465 6.35192 20.2501 6.26553 19.7889 5.93034C19.3278 5.59516 19.0617 5.05433 19.0772 4.48466L19.1064 3.42675C19.1538 1.70331 16.9261 0.979688 15.9515 2.40201L15.3538 3.27405H15.3535C15.0314 3.7446 14.4976 4.02596 13.9273 4.02596C13.357 4.02596 12.8231 3.7446 12.5011 3.27405L11.9034 2.40201C10.9288 0.979688 8.70107 1.70425 8.74849 3.42675L8.77769 4.48466H8.77739C8.7929 5.05437 8.52675 5.5952 8.06563 5.93034C7.60452 6.26549 7.00803 6.35193 6.47059 6.16121L5.47381 5.80654C3.84958 5.22831 2.47257 7.1239 3.52409 8.48993L4.16954 9.32857V9.32887C4.51751 9.78087 4.62002 10.3755 4.44359 10.9178C4.26718 11.4605 3.83465 11.8808 3.28742 12.0421L2.2718 12.3423C0.617735 12.8293 0.617735 15.172 2.2718 15.659L3.28742 15.9568C3.83462 16.118 4.26715 16.5386 4.44328 17.081C4.6197 17.6237 4.5172 18.218 4.16923 18.67L3.52378 19.5086C2.47195 20.8746 3.84894 22.7702 5.4735 22.192L6.47059 21.8376C7.00806 21.6469 7.6045 21.7333 8.06563 22.0685C8.52676 22.4037 8.7929 22.9445 8.77739 23.5142L8.74819 24.5721C8.70073 26.2955 10.9285 27.0192 11.9031 25.5968L12.5008 24.7248H12.5011C12.8232 24.2542 13.357 23.9729 13.9273 23.9729C14.4976 23.9729 15.0314 24.2543 15.3535 24.7248L15.9512 25.5968C16.9258 27.0192 19.1535 26.2946 19.1061 24.5721L19.0769 23.5142H19.0772C19.0617 22.9445 19.3278 22.4036 19.7889 22.0685C20.25 21.7334 20.8465 21.6469 21.384 21.8376L22.3807 22.1923C24.005 22.7705 25.382 20.8749 24.3305 19.5089L23.685 18.6703V18.67C23.337 18.218 23.2345 17.6234 23.411 17.081C23.5874 16.5384 24.0199 16.118 24.5671 15.9568L25.5828 15.6566C27.2365 15.1708 27.2365 12.8281 25.5828 12.3424V12.3423ZM10.2452 15.9705H9.3805V13.7166C9.3805 13.2527 9.24575 12.6989 8.60335 12.6989C8.16716 12.6989 7.87212 13.0173 7.77476 13.3324V13.3367C7.74556 13.4295 7.73187 13.5265 7.734 13.6235V15.9705H6.86866V13.1427C6.86866 12.7233 6.85953 12.4215 6.83763 12.1341L6.83033 12.0358H7.61874L7.64764 12.4921C7.88093 12.2034 8.27788 11.951 8.82811 11.951H8.8278C9.16512 11.9479 9.4918 12.0687 9.7464 12.2901C10.0773 12.5858 10.2452 13.0396 10.2452 13.6388L10.2452 15.9705ZM14.7366 14.1059L14.7238 14.2185H12.1016C12.1636 15.2274 12.9505 15.3387 13.2936 15.3387C13.7891 15.3387 14.0687 15.2493 14.2965 15.152L14.3954 15.1085L14.5541 15.7749L14.4857 15.806C14.243 15.9182 13.8226 16.049 13.2003 16.049C12.0228 16.049 11.2642 15.2706 11.2642 14.0661C11.2642 12.8211 12.0256 11.9515 13.1154 11.9515C13.6854 11.9515 14.139 12.1818 14.426 12.6173C14.7247 13.0706 14.757 13.6025 14.757 13.81V13.8103C14.7564 13.9091 14.7497 14.008 14.7366 14.1059L14.7366 14.1059ZM19.756 15.9705H19.0029L18.4086 14.1163C18.3118 13.8079 18.2279 13.5271 18.1543 13.2305C18.0727 13.5581 17.98 13.852 17.8927 14.1245L17.2661 15.9705H16.513L15.3261 12.0372H16.217L16.7332 14.0225C16.8083 14.3124 16.8807 14.5895 16.9412 14.8654C17.0163 14.5855 17.1049 14.2984 17.1909 14.0165L17.8242 12.0372H18.5314L19.1328 13.9778C19.2322 14.2978 19.3137 14.5825 19.3819 14.8499C19.4451 14.5563 19.5236 14.2646 19.6 13.9869L20.1554 12.0372H21.0241L19.756 15.9705Z" fill="#D0021B"/>
</svg>
