<svg width="24" height="24" viewBox="0 0 24 24" fill="none" xmlns="http://www.w3.org/2000/svg">
<path d="M18.2231 12.3L15.7481 14.0625C15.7481 14.0625 14.5106 10.6125 13.5731 8.39995C13.1981 7.49995 11.9981 7.19995 11.4356 5.92495C10.4606 3.74995 11.6231 1.87494 12.7481 3.22495C14.0606 4.79995 16.0106 5.96245 16.4231 6.86245C17.0606 8.36245 18.2231 12.3 18.2231 12.3" fill="#FFDD67"/>
<path d="M20.1727 13.7257C20.3602 14.9257 20.2102 16.7632 19.1602 18.9382C19.1602 18.9382 17.0227 16.3882 16.7602 15.1882C16.7602 15.1882 16.1602 10.7257 15.5227 7.87571C15.2602 6.7132 13.9102 6.0382 13.5727 4.3882C12.9727 1.5382 14.7727 -0.449297 15.8227 1.4632C17.0227 3.6757 19.0477 5.5507 19.3102 6.7132C19.7602 8.70071 19.9477 12.0007 20.1727 13.7257" fill="#FFDD67"/>
<path d="M17.0266 11.475C17.0266 11.475 16.8391 9.7875 16.2016 6.9375C15.9391 5.775 14.5891 5.1 14.2516 3.45C14.0266 2.475 14.1016 1.575 14.3641 0.9375C13.7266 1.425 13.2016 2.775 13.5391 4.425C13.8766 6.075 15.2641 6.75 15.4891 7.9125C15.7516 9.15 15.9766 10.425 15.9766 10.425L14.1016 9.7125L17.0266 11.475" fill="#EBA352"/>
<path d="M19.2742 13.2752C16.7992 11.0252 14.0242 9.63774 12.2242 8.77524C9.5617 7.46274 10.2742 9.26274 5.7367 10.4627C5.1367 10.6127 4.4242 11.0627 4.9867 12.1877C5.5117 13.2752 9.7867 12.4502 10.4617 11.8127C10.4617 11.8127 12.2617 14.0252 14.0617 13.9502C14.0617 13.9502 13.7617 15.4127 14.1742 16.1252C14.1742 16.1252 11.6242 17.4377 10.5367 18.6002L7.5367 16.5752C7.3117 13.4627 6.7492 12.5252 5.2117 12.6752C3.7867 12.8252 3.9367 14.1752 3.9742 15.2627C4.0117 17.2502 3.4867 17.5877 3.9742 18.3752C5.8117 21.3752 8.1742 23.2502 12.5242 23.2502C14.1367 23.2502 15.1867 23.2127 16.1992 22.7252C17.8492 21.8627 22.0117 15.7877 19.2742 13.2752" fill="#FFDD67"/>
<path d="M19.7625 13.875C20.7 16.725 17.3625 21.4125 15.9 22.125C14.8875 22.6125 13.875 22.65 12.225 22.65C7.9125 22.65 5.5875 20.8125 3.75 17.85C3.7875 18 3.8625 18.1875 3.9375 18.3375C5.8125 21.375 8.175 23.25 12.525 23.25C14.1375 23.25 15.1875 23.2125 16.2 22.725C17.7375 21.9375 21.45 16.65 19.7625 13.875Z" fill="#EBA352"/>
<path d="M6.97344 16.6494C6.97344 16.6494 9.78594 18.4494 10.4609 18.5619L7.49844 16.5744C7.61094 13.4244 6.71094 12.4119 5.17344 12.6744C5.06094 12.7119 4.94844 12.7119 4.83594 12.7494C6.37344 12.5619 7.08594 13.5744 6.97344 16.6494" fill="#EBA352"/>
<path d="M10.4607 11.8125C10.4607 11.8125 12.2607 13.9875 14.0607 13.95V13.5375C12.2607 13.575 10.4607 11.4 10.4607 11.4C9.78572 12.075 5.51072 12.9 4.98572 11.775C4.91072 11.5875 4.83572 11.4 4.79822 11.25C4.76072 11.475 4.79822 11.775 4.98572 12.1875C5.51072 13.275 9.78572 12.45 10.4607 11.8125Z" fill="#EBA352"/>
</svg>
