<svg width="42" height="42" viewBox="0 0 42 42" fill="none" xmlns="http://www.w3.org/2000/svg">
<path d="M17.1308 1.86719H14.0859V3.78907H17.1308V1.86719Z" fill="#282B30"/>
<path d="M17.1318 12.7503V4.35156H14.1029V12.7503C14.1029 12.7503 9.80078 14.6168 9.80078 18.5236V37.6299C9.80263 38.2082 10.0317 38.7627 10.4384 39.1739C10.8451 39.5851 11.3972 39.8202 11.9755 39.8284H19.2511C19.8302 39.8221 20.3833 39.5878 20.7903 39.1763C21.1975 38.7645 21.4261 38.209 21.4261 37.6299V18.5229C21.4261 14.6162 17.1316 12.7499 17.1316 12.7499L17.1318 12.7503ZM12.7188 14.7511C13.0879 14.5488 13.5113 14.4686 13.9289 14.5218C12.4691 15.3819 11.3517 16.7201 10.7655 18.3099C10.9948 16.1034 12.007 15.1465 12.7188 14.7511V14.7511ZM19.6391 31.6829H11.5725V23.118H19.6391V31.6829Z" fill="#282B30"/>
<path d="M32.4882 29.8229C32.3703 29.694 32.2043 29.6196 32.0295 29.6172H24.3819C24.2058 29.6185 24.0387 29.694 23.9214 29.8248C23.8038 29.9559 23.7472 30.1304 23.7649 30.3054C24.0496 33.2395 24.3501 36.2526 24.6347 39.1787V39.2658V39.2655C24.6671 39.5827 24.9329 39.8247 25.2517 39.8271H31.1436C31.4653 39.8287 31.7357 39.5856 31.7682 39.2655C31.8948 37.9606 32.0214 36.6478 32.1556 35.3114H32.1559C32.1871 35.2386 32.2059 35.1612 32.2112 35.0821C32.2149 35.0347 32.2149 34.987 32.2112 34.9396C32.3613 33.3975 32.5117 31.8474 32.6619 30.329C32.6804 30.1431 32.6169 29.9581 32.4879 29.823L32.4882 29.8229ZM31.0013 34.291C30.9251 34.2532 30.8512 34.2111 30.78 34.1645C30.3486 33.8856 29.8461 33.7373 29.3326 33.7373C28.8191 33.7373 28.3166 33.8856 27.8855 34.1645C27.6453 34.3244 27.3633 34.4097 27.0747 34.4097C26.7863 34.4097 26.5043 34.3244 26.2642 34.1645C25.9867 33.9855 25.6782 33.8594 25.3546 33.7929C25.2598 32.8124 25.1568 31.8002 25.062 30.8588H31.3413C31.2227 31.9977 31.112 33.168 31.0013 34.291L31.0013 34.291Z" fill="#282B30"/>
</svg>
