<svg width="42" height="42" viewBox="0 0 42 42" fill="none" xmlns="http://www.w3.org/2000/svg">
<path d="M18.7903 37.0987H7.82122C6.33941 37.0987 5.13281 35.8921 5.13281 34.4103C5.13281 32.9285 6.33941 31.7168 7.82122 31.7168H16.282C16.4772 32.4728 16.7176 33.2037 16.988 33.9097H8.03157C7.75613 33.9097 7.53095 34.1349 7.53095 34.4103C7.53095 34.6857 7.75613 34.9109 8.03157 34.9109H17.4187C17.7638 35.6683 18.1768 36.541 18.7904 37.0987L18.7903 37.0987Z" fill="#282B30"/>
<path d="M16.0472 30.7178H7.82122C6.33941 30.7178 5.13281 29.5112 5.13281 28.0294C5.13281 26.5476 6.33941 25.3359 7.82122 25.3359H15.5816C15.5717 25.5863 15.5666 25.8416 15.5666 26.097C15.5666 26.5776 15.5816 27.0533 15.6116 27.5288L8.03174 27.5286C7.7563 27.5286 7.53111 27.7538 7.53111 28.0292C7.53111 28.3046 7.7563 28.5298 8.03174 28.5298H15.7019C15.7768 29.2709 15.892 30.002 16.0471 30.7179L16.0472 30.7178Z" fill="#282B30"/>
<path d="M30.0142 11.7365H30.3493C30.92 11.7365 31.3807 11.2709 31.3807 10.7051C31.3807 10.1293 30.9202 9.66378 30.3493 9.66378H30.2442V6.69994C30.2442 5.83374 29.5433 5.13281 28.6771 5.13281H25.0374C24.1712 5.13281 23.4703 5.83374 23.4703 6.69994V9.66378H23.3751C22.7993 9.66378 22.3338 10.1294 22.3338 10.7051C22.3338 11.2707 22.7993 11.7365 23.3751 11.7365H23.7208C19.5757 13.6835 16.5664 19.3718 16.5664 26.0949C16.5664 29.7597 17.4676 33.1189 18.9596 35.7276C19.4503 36.5938 20.3914 37.0994 21.3827 37.0994H32.3518C33.3483 37.0994 34.2843 36.5937 34.78 35.7276C36.2669 33.1191 37.1681 29.7597 37.1681 26.0949C37.1684 19.3718 34.1642 13.6837 30.0137 11.7365H30.0142ZM26.8602 31.7771C23.7962 31.7771 21.3079 28.4827 21.3079 24.4074C21.3079 20.3471 23.796 17.0529 26.8602 17.0529C29.9393 17.0529 32.4274 20.3473 32.4274 24.4074C32.4274 28.4826 29.9393 31.7771 26.8602 31.7771V31.7771Z" fill="#282B30"/>
</svg>
